<svg width="50" height="52" viewBox="0 0 50 52" fill="none" xmlns="http://www.w3.org/2000/svg">
<g clip-path="url(#clip0_37_34)">
<path d="M24.4475 40.7491L26.2767 36.4285C27.8771 32.6102 30.8056 29.5488 34.485 27.8476L39.5184 25.5433C41.1184 24.8103 41.1184 22.4092 39.5184 21.6741L34.6434 19.4429C30.869 17.6973 27.8883 14.5234 26.3163 10.576L24.4621 5.9717C24.3163 5.59347 24.0638 5.2691 23.7373 5.04058C23.4108 4.81205 23.0254 4.68988 22.6309 4.68988C22.2363 4.68988 21.8509 4.81205 21.5244 5.04058C21.1979 5.2691 20.9454 5.59347 20.7996 5.9717L18.9475 10.576C17.3756 14.5234 14.3948 17.6973 10.6205 19.4429L5.74546 21.6762C4.14546 22.4071 4.14546 24.8103 5.74546 25.5433L10.7767 27.8476C14.4558 29.5483 17.3842 32.6089 18.985 36.4264L20.8142 40.747C20.9646 41.1159 21.2172 41.4309 21.5404 41.6524C21.8636 41.8739 22.2429 41.992 22.6309 41.992C23.0188 41.992 23.3982 41.8739 23.7213 41.6524C24.0445 41.4309 24.2971 41.1181 24.4475 40.7491ZM42.7538 51.2668L43.2684 50.0502C44.1708 47.8981 45.8215 46.1727 47.8954 45.2137L49.4788 44.485C49.6706 44.394 49.8331 44.2481 49.947 44.0646C50.061 43.8812 50.1215 43.6679 50.1215 43.45C50.1215 43.2321 50.061 43.0188 49.947 42.8354C49.8331 42.652 49.6706 42.5061 49.4788 42.415L47.985 41.7293C45.8574 40.7447 44.1772 38.955 43.2913 36.7295L42.7621 35.4161C42.6839 35.2135 42.5486 35.0398 42.3736 34.9174C42.1987 34.795 41.9922 34.7296 41.7809 34.7296C41.5695 34.7296 41.363 34.795 41.1881 34.9174C41.0132 35.0398 40.8778 35.2135 40.7996 35.4161L40.2704 36.7273C39.385 38.9537 37.7048 40.7442 35.5767 41.7293L34.0809 42.4172C33.8896 42.5085 33.7277 42.6543 33.6142 42.8376C33.5007 43.0208 33.4404 43.2337 33.4404 43.4511C33.4404 43.6685 33.5007 43.8814 33.6142 44.0646C33.7277 44.2478 33.8896 44.3937 34.0809 44.485L35.6642 45.2116C37.7393 46.1706 39.3908 47.8969 40.2934 50.0502L40.8079 51.2668C41.1829 52.1567 42.3788 52.1567 42.7538 51.2668Z" fill="#CDBDFE"/>
</g>
<defs>
<clipPath id="clip0_37_34">
<rect width="50" height="51.589" fill="white"/>
</clipPath>
</defs>
</svg>
