<svg width="779" height="841" viewBox="0 0 779 841" fill="none" xmlns="http://www.w3.org/2000/svg">
<g filter="url(#filter0_n_2162_349)">
<path fill-rule="evenodd" clip-rule="evenodd" d="M305.41 61.453L545.759 196.07L632.688 144.022L650.673 277.276L632.688 305.889L596.445 319.515L607.822 354.94L616.61 408.351L610.342 453.314C610.342 453.314 612.601 445.241 607.822 427.426C601.305 403.135 542.216 305.345 542.216 305.345L407.327 230.678L481.993 242.668L436.757 218.416L328.3 196.07L177.605 53.8229L63.6985 291.719L148.992 397.723L93.9465 291.719L184.69 97.6961L305.41 208.06L262.354 242.668L191.231 168.82L136.73 291.719L191.231 379.466V277.276L262.354 291.719L321.215 224.956L423.404 297.987H292.33L228.019 379.466L279.249 424.156L423.404 408.351L513.058 544.058L448.475 506.18L347.648 551.416L258.539 501.82L165.07 556.048L258.539 533.703L436.485 621.722L523.413 571.036C565.474 546.177 584.198 527.605 610.342 486.832C606.199 534.669 597.244 560.147 569.194 602.919L479.268 671.59C479.268 671.59 468.447 663.004 461.01 658.238C447.145 649.353 423.404 647.882 423.404 647.882L441.117 671.59L469.73 680.855L558.566 753.614L577.914 720.914L537.856 668.593L588.814 700.476L637.593 665.323L705.446 700.476V699.931L716.074 686.851L695.721 644.34L745.504 680.583V704.291L751.227 691.483L778.75 719.006L762.129 795.58L745.504 813.565L716.074 806.207H710.624L705.446 808.387L637.593 840.816L569.194 808.387L398.334 840.816L235.649 743.531H0.75V0.68457L305.41 61.453ZM608.98 768.874L661.301 801.847L674.381 782.772L647.13 761.789L665.661 719.824L641.408 711.376L608.98 768.874ZM730.517 736.991L749.865 741.079L732.719 774.052L747.685 777.594L762.129 733.721L732.719 720.096L730.517 736.991ZM556.863 221.141L589.087 299.894L626.693 269.646L616.61 184.625L556.863 221.141Z" fill="url(#paint0_linear_2162_349)"/>
<path d="M720.162 574.579L684.736 633.985L647.02 598.695L673.563 574.579C699.66 549.277 710.969 528.616 723.977 479.747C728.639 516.767 728.157 537.525 720.162 574.579Z" fill="url(#paint1_linear_2162_349)"/>
<path d="M304.359 64.3027L544.293 198.688L545.809 199.537L547.3 198.645L630.323 148.934L647.554 276.599L630.686 303.437L595.389 316.706L592.715 317.712L593.588 320.432L604.896 355.642L613.575 408.389L610.921 427.427C610.854 427.17 610.789 426.91 610.719 426.649C608.993 420.217 603.922 409.269 597.491 396.734C591.008 384.097 582.987 369.555 575.185 355.797C567.38 342.035 559.781 329.035 554.134 319.478C551.31 314.698 548.973 310.779 547.342 308.054C546.526 306.691 545.888 305.626 545.452 304.902C545.235 304.541 545.068 304.264 544.955 304.077C544.899 303.984 544.856 303.913 544.827 303.865C544.813 303.842 544.802 303.824 544.795 303.812C544.791 303.806 544.789 303.801 544.787 303.798C544.786 303.796 544.785 303.795 544.784 303.794C544.779 303.796 544.668 303.863 542.216 305.345L544.784 303.793L544.37 303.107L543.669 302.72L423.785 236.359L481.518 245.631L483.41 240.024L438.175 215.771L437.79 215.565L437.362 215.478L329.739 193.304L179.665 51.6416L176.675 48.8193L174.899 52.5273L60.9932 290.424L60.1768 292.128L61.3613 293.6L146.655 399.604L151.655 396.341L97.291 291.649L185.679 102.664L300.803 207.913L262.612 238.611L193.392 166.738L190.297 163.525L188.488 167.604L133.987 290.503L133.344 291.954L134.182 293.302L188.683 381.049L194.23 389.981V280.946L261.757 294.659L263.457 295.004L264.604 293.703L321.674 228.971L414.046 294.986H290.876L289.975 296.128L225.664 377.606L223.895 379.849L226.047 381.727L277.277 426.417L278.269 427.282L279.576 427.139L421.91 411.532L503.437 534.937L449.992 503.593L448.658 502.81L447.247 503.443L347.792 548.062L259.998 499.198L258.509 498.369L257.033 499.226L163.564 553.453L165.768 558.966L258.182 536.873L435.154 624.411L436.602 625.127L437.996 624.313L524.925 573.628L524.933 573.623L524.939 573.619C546.083 561.122 561.499 550.125 574.938 537.052C586.033 526.26 595.708 514.12 606.138 498.687C604.054 516.719 600.965 531.478 595.905 545.773C589.796 563.035 580.766 579.762 566.964 600.847L479.291 667.797C478.152 666.911 476.56 665.684 474.734 664.307C471.088 661.556 466.449 658.16 462.629 655.712C455.204 650.954 445.343 648.28 437.575 646.782C433.648 646.025 430.169 645.553 427.668 645.27C426.417 645.128 425.407 645.033 424.706 644.974C424.355 644.944 424.081 644.923 423.893 644.909C423.799 644.902 423.726 644.897 423.675 644.894C423.65 644.892 423.629 644.891 423.615 644.89C423.608 644.889 423.602 644.889 423.598 644.889H423.591C423.59 644.897 423.58 645.047 423.404 647.883L423.59 644.888L417.123 644.487L421.001 649.678L438.714 673.386L439.285 674.15L440.193 674.444L468.267 683.535L556.666 755.935L559.369 758.149L561.148 755.142L580.496 722.441L581.527 720.698L580.296 719.09L550.309 679.923L587.224 703.019L588.933 704.089L590.568 702.909L637.851 668.834L704.066 703.14L708.446 705.408V700.995L718.402 688.742L719.6 687.269L718.78 685.555L703.554 653.753L742.505 682.108V704.291L748.243 705.515L752.188 696.687L775.471 719.969L759.37 794.145L744.508 810.223L716.802 803.297L716.443 803.207H710.019L709.46 803.442L704.282 805.623L704.217 805.65L704.152 805.681L637.587 837.492L570.479 805.677L569.596 805.258L568.635 805.44L398.895 837.655L237.188 740.957L236.478 740.531H3.75V4.3418L304.359 64.3027ZM638.795 709.902L606.367 767.4L604.963 769.889L607.38 771.412L659.701 804.386L662.143 805.924L663.774 803.544L676.855 784.469L678.461 782.127L676.211 780.396L650.825 760.848L668.405 721.035L669.719 718.061L666.647 716.99L642.395 708.543L640.026 707.718L638.795 709.902ZM729.744 719.708L727.542 736.604L727.185 739.354L729.897 739.927L745.381 743.197L730.057 772.668L728.28 776.084L732.027 776.972L746.993 780.514L749.673 781.148L750.534 778.532L764.979 734.659L765.814 732.122L763.391 730.999L733.979 717.374L730.271 715.656L729.744 719.708ZM722.702 495.399C725.305 523.063 723.993 542.459 717.331 573.467L684.066 629.249L651.445 598.728L675.581 576.799L675.617 576.767L675.651 576.732C688.855 563.931 698.424 552.198 706.324 537.415C712.509 525.842 717.628 512.478 722.702 495.399ZM615.046 182.065L555.299 218.581L553.119 219.913L554.087 222.276L586.311 301.03L587.833 304.753L590.967 302.231L628.573 271.984L629.867 270.942L629.672 269.293L619.589 184.271L619.038 179.625L615.046 182.065Z" stroke="white" stroke-width="6"/>
</g>
<defs>
<filter id="filter0_n_2162_349" x="0.75" y="0.68457" width="778" height="840.131" filterUnits="userSpaceOnUse" color-interpolation-filters="sRGB">
<feFlood flood-opacity="0" result="BackgroundImageFix"/>
<feBlend mode="normal" in="SourceGraphic" in2="BackgroundImageFix" result="shape"/>
<feTurbulence type="fractalNoise" baseFrequency="10 10" stitchTiles="stitch" numOctaves="3" result="noise" seed="6882" />
<feColorMatrix in="noise" type="luminanceToAlpha" result="alphaNoise" />
<feComponentTransfer in="alphaNoise" result="coloredNoise1">
<feFuncA type="discrete" tableValues="1 1 1 1 1 1 1 1 1 1 1 1 1 1 1 1 1 1 1 1 1 1 1 1 1 1 1 1 1 1 1 1 1 1 1 1 1 1 1 1 1 1 1 1 1 1 1 1 1 1 1 0 0 0 0 0 0 0 0 0 0 0 0 0 0 0 0 0 0 0 0 0 0 0 0 0 0 0 0 0 0 0 0 0 0 0 0 0 0 0 0 0 0 0 0 0 0 0 0 0 "/>
</feComponentTransfer>
<feComposite operator="in" in2="shape" in="coloredNoise1" result="noise1Clipped" />
<feFlood flood-color="rgba(0, 0, 0, 0.25)" result="color1Flood" />
<feComposite operator="in" in2="noise1Clipped" in="color1Flood" result="color1" />
<feMerge result="effect1_noise_2162_349">
<feMergeNode in="shape" />
<feMergeNode in="color1" />
</feMerge>
</filter>
<linearGradient id="paint0_linear_2162_349" x1="597" y1="0.999984" x2="203.5" y2="841" gradientUnits="userSpaceOnUse">
<stop stop-color="white"/>
<stop offset="1" stop-color="#999999"/>
</linearGradient>
<linearGradient id="paint1_linear_2162_349" x1="597" y1="0.999984" x2="203.5" y2="841" gradientUnits="userSpaceOnUse">
<stop stop-color="white"/>
<stop offset="1" stop-color="#999999"/>
</linearGradient>
</defs>
</svg>
