<svg width="451" height="487" viewBox="0 0 451 487" fill="none" xmlns="http://www.w3.org/2000/svg">
<g filter="url(#filter0_n_2162_349)">
<path fill-rule="evenodd" clip-rule="evenodd" d="M176.967 35.9301L315.986 113.794L366.267 83.6884L376.669 160.764L366.267 177.314L345.303 185.195L351.884 205.685L356.967 236.578L353.342 262.585C353.342 262.585 354.648 257.915 351.884 247.611C348.115 233.561 313.937 176.998 313.937 176.998L235.916 133.811L279.104 140.746L252.939 126.718L190.207 113.794L103.044 31.5168L37.1598 169.117L86.4943 230.431L54.6554 169.117L107.142 56.8933L176.967 120.729L152.063 140.746L110.925 98.0317L79.4015 169.117L110.925 219.871V160.764L152.063 169.117L186.109 130.501L245.216 172.743H169.401L132.204 219.871L161.836 245.72L245.216 236.578L297.072 315.072L259.717 293.163L201.398 319.328L149.857 290.641L95.7938 322.007L149.857 309.082L252.782 359.993L303.062 330.676C327.39 316.297 338.22 305.555 353.342 281.972C350.946 309.641 345.766 324.378 329.542 349.117L277.528 388.837C277.528 388.837 271.269 383.871 266.967 381.114C258.948 375.975 245.216 375.124 245.216 375.124L255.461 388.837L272.011 394.196L323.394 436.28L334.585 417.366L311.415 387.103L340.89 405.545L369.104 385.212L408.351 405.545V405.23L414.498 397.664L402.726 373.075L431.521 394.039V407.751L434.831 400.343L450.75 416.263L441.137 460.554L431.521 470.956L414.498 466.701H411.345L408.351 467.962L369.104 486.718L329.542 467.962L230.715 486.718L136.617 430.448H0.75V0.78125L176.967 35.9301ZM352.554 445.107L382.817 464.179L390.382 453.146L374.62 441.009L385.338 416.736L371.31 411.85L352.554 445.107ZM422.852 426.666L434.042 429.03L424.125 448.102L432.782 450.151L441.137 424.774L424.125 416.893L422.852 426.666ZM322.409 128.294L341.048 173.846L362.799 156.35L356.967 107.174L322.409 128.294Z" fill="url(#paint0_linear_2162_349)"/>
<path d="M416.862 332.725L396.372 367.086L374.556 346.674L389.909 332.725C405.004 318.091 411.545 306.14 419.069 277.874C421.766 299.286 421.487 311.293 416.862 332.725Z" fill="url(#paint1_linear_2162_349)"/>
<path d="M176.357 37.5771L315.139 115.308L316.016 115.799L316.878 115.282L364.898 86.5293L374.865 160.371L365.108 175.895L344.692 183.57L343.146 184.151L343.651 185.725L350.192 206.097L355.212 236.601L353.677 247.612C353.638 247.464 353.6 247.313 353.56 247.162C352.561 243.442 349.628 237.109 345.908 229.858C342.158 222.549 337.52 214.137 333.007 206.18C328.492 198.22 324.096 190.701 320.83 185.173C319.197 182.409 317.846 180.142 316.902 178.565C316.431 177.778 316.061 177.162 315.81 176.743C315.684 176.534 315.587 176.374 315.521 176.266C315.489 176.212 315.465 176.17 315.448 176.143L315.424 176.104L315.423 176.102L315.183 175.705L314.777 175.48L245.436 137.097L278.829 142.46L279.924 139.217L253.759 125.188L253.536 125.069L253.289 125.019L191.04 112.192L104.235 30.2549L102.506 28.623L101.479 30.7676L35.5947 168.368L35.123 169.354L35.8076 170.205L85.1426 231.519L88.0342 229.631L56.5898 169.077L107.714 59.7666L174.302 120.644L152.212 138.399L112.175 96.8281L110.385 94.9697L109.339 97.3281L77.8154 168.414L77.4434 169.253L77.9277 170.033L109.451 220.786L112.66 225.953V162.886L151.718 170.818L152.701 171.018L153.365 170.265L186.373 132.823L239.805 171.008H168.561L168.039 171.668L130.842 218.796L129.818 220.092L131.062 221.178L160.695 247.027L161.269 247.527L162.025 247.444L244.352 238.418L291.506 309.796L260.595 291.666L259.823 291.214L259.007 291.58L201.48 317.388L150.701 289.125L149.839 288.646L148.986 289.141L94.9229 320.506L96.1973 323.694L149.65 310.916L252.012 361.549L252.849 361.963L253.655 361.492L303.936 332.175L303.944 332.17C316.174 324.942 325.091 318.581 332.864 311.02C339.281 304.777 344.876 297.754 350.908 288.828C349.703 299.258 347.918 307.796 344.991 316.064C341.458 326.049 336.234 335.723 328.251 347.919L277.541 386.643C276.882 386.13 275.961 385.42 274.905 384.624C272.796 383.033 270.113 381.069 267.903 379.653C263.609 376.901 257.906 375.354 253.413 374.488C251.142 374.05 249.128 373.777 247.682 373.613C246.958 373.531 246.374 373.477 245.969 373.442C245.766 373.425 245.607 373.412 245.498 373.404C245.444 373.4 245.401 373.397 245.372 373.396C245.357 373.395 245.346 373.394 245.338 373.394C245.334 373.393 245.331 373.393 245.328 373.393H245.324C245.324 373.393 245.323 373.393 245.216 375.124L245.323 373.393L241.583 373.161L243.826 376.163L254.071 389.876L254.401 390.318L254.927 390.488L271.162 395.744L322.295 437.623L323.858 438.903L324.888 437.164L336.079 418.25L336.676 417.241L335.963 416.312L318.617 393.655L339.97 407.016L340.958 407.635L341.904 406.952L369.252 387.243L407.553 407.086L410.086 408.398V405.846L415.845 398.758L416.537 397.905L416.062 396.915L407.256 378.521L429.785 394.921V407.752L433.104 408.459L435.386 403.353L448.854 416.82L439.54 459.724L430.943 469.023L414.919 465.018L414.711 464.966H410.995L410.672 465.102L407.678 466.362L407.64 466.378L407.603 466.396L369.1 484.796L330.285 466.394L329.773 466.151L329.218 466.257L231.04 484.89L137.508 428.959L137.096 428.713H2.48535V2.89648L176.357 37.5771ZM369.799 410.997L351.042 444.255L350.23 445.694L351.629 446.575L381.892 465.646L383.304 466.537L384.248 465.16L391.813 454.127L392.742 452.772L391.44 451.771L376.758 440.464L386.926 417.437L387.686 415.716L385.909 415.097L371.881 410.211L370.512 409.733L369.799 410.997ZM422.404 416.669L421.131 426.441L420.924 428.032L422.493 428.363L431.449 430.255L422.586 447.301L421.558 449.277L423.726 449.79L432.382 451.839L433.932 452.206L434.43 450.693L442.785 425.316L443.268 423.85L441.866 423.2L424.854 415.319L422.71 414.325L422.404 416.669ZM418.331 286.921C419.838 302.926 419.078 314.145 415.224 332.084L395.984 364.348L377.116 346.692L391.076 334.01L391.117 333.971C398.754 326.566 404.289 319.78 408.858 311.229C412.436 304.534 415.396 296.802 418.331 286.921ZM356.062 105.693L321.505 126.813L320.244 127.584L320.804 128.951L339.441 174.503L340.322 176.656L342.136 175.198L363.887 157.702L364.636 157.101L364.522 156.146L358.69 106.969L358.371 104.281L356.062 105.693Z" stroke="white" stroke-width="3.47044"/>
</g>
<defs>
<filter id="filter0_n_2162_349" x="0.75" y="0.78125" width="450" height="485.937" filterUnits="userSpaceOnUse" color-interpolation-filters="sRGB">
<feFlood flood-opacity="0" result="BackgroundImageFix"/>
<feBlend mode="normal" in="SourceGraphic" in2="BackgroundImageFix" result="shape"/>
<feTurbulence type="fractalNoise" baseFrequency="17.288888931274414 17.288888931274414" stitchTiles="stitch" numOctaves="3" result="noise" seed="6882" />
<feColorMatrix in="noise" type="luminanceToAlpha" result="alphaNoise" />
<feComponentTransfer in="alphaNoise" result="coloredNoise1">
<feFuncA type="discrete" tableValues="1 1 1 1 1 1 1 1 1 1 1 1 1 1 1 1 1 1 1 1 1 1 1 1 1 1 1 1 1 1 1 1 1 1 1 1 1 1 1 1 1 1 1 1 1 1 1 1 1 1 1 0 0 0 0 0 0 0 0 0 0 0 0 0 0 0 0 0 0 0 0 0 0 0 0 0 0 0 0 0 0 0 0 0 0 0 0 0 0 0 0 0 0 0 0 0 0 0 0 0 "/>
</feComponentTransfer>
<feComposite operator="in" in2="shape" in="coloredNoise1" result="noise1Clipped" />
<feFlood flood-color="rgba(0, 0, 0, 0.25)" result="color1Flood" />
<feComposite operator="in" in2="noise1Clipped" in="color1Flood" result="color1" />
<feMerge result="effect1_noise_2162_349">
<feMergeNode in="shape" />
<feMergeNode in="color1" />
</feMerge>
</filter>
<linearGradient id="paint0_linear_2162_349" x1="345.625" y1="0.963687" x2="118.022" y2="486.825" gradientUnits="userSpaceOnUse">
<stop stop-color="white"/>
<stop offset="1" stop-color="#999999"/>
</linearGradient>
<linearGradient id="paint1_linear_2162_349" x1="345.625" y1="0.963687" x2="118.022" y2="486.825" gradientUnits="userSpaceOnUse">
<stop stop-color="white"/>
<stop offset="1" stop-color="#999999"/>
</linearGradient>
</defs>
</svg>
