<svg width="1440" height="1980" viewBox="0 0 1440 1980" fill="none" xmlns="http://www.w3.org/2000/svg">
<path d="M565.896 117.198L1006.07 363.735L1009.1 365.434L1012.08 363.647L1163.77 272.823L1195.26 506.147L1164.5 555.095L1099.89 579.384L1094.54 581.395L1096.29 586.835L1117.03 651.416L1132.93 748.073L1128.41 780.513C1125 768.545 1115.85 748.857 1104.36 726.458C1092.46 703.261 1077.74 676.572 1063.42 651.326C1049.1 626.072 1035.16 602.218 1024.79 584.681C1019.61 575.911 1015.32 568.717 1012.33 563.716C1010.83 561.215 1009.66 559.262 1008.86 557.934C1008.46 557.269 1008.16 556.761 1007.95 556.418C1007.85 556.247 1007.77 556.118 1007.72 556.03C1007.69 555.987 1007.67 555.954 1007.66 555.932C1007.65 555.921 1007.64 555.912 1007.64 555.906C1007.64 555.903 1007.64 555.901 1007.64 555.899C1007.63 555.899 1007.55 555.948 1002.5 559L1007.64 555.897L1006.81 554.526L1005.41 553.751L787.914 433.361L891.049 449.924L894.835 438.712L811.835 394.212L811.065 393.8L810.211 393.623L612.878 352.966L337.618 93.1367L331.64 87.4932L328.088 94.9092L119.088 531.409L117.456 534.817L119.825 537.761L276.325 732.261L286.325 725.734L186.688 533.859L348.476 187.937L558.786 380.207L489.516 435.887L362.821 304.338L356.632 297.911L353.015 306.067L253.015 531.567L251.729 534.469L253.403 537.166L353.403 698.166L364.5 716.031V514.84L487.806 539.88L491.206 540.57L493.501 537.968L597.918 419.53L765.785 539.5H541.092L539.29 541.782L421.29 691.282L417.751 695.767L422.056 699.521L516.056 781.521L518.038 783.251L520.654 782.964L781.513 754.362L929.758 978.758L833.535 922.324L830.867 920.759L828.044 922.025L645.789 1003.79L484.918 914.257L481.938 912.599L478.989 914.311L307.489 1013.81L311.896 1024.84L481.284 984.339L805.84 1144.88L808.733 1146.31L811.522 1144.68L971.022 1051.68L971.037 1051.67L971.053 1051.67C1009.87 1028.72 1038.19 1008.53 1062.89 984.5C1082.87 965.062 1100.34 943.249 1119.06 915.711C1115.24 947.858 1109.62 974.332 1100.54 999.982C1089.36 1031.58 1072.83 1062.22 1047.54 1100.86L887.045 1223.42C884.979 1221.81 882.175 1219.65 878.981 1217.24C872.708 1212.51 864.822 1206.73 858.071 1202.31L856.737 1201.45C843.032 1192.67 824.865 1187.75 810.596 1185C803.375 1183.6 796.977 1182.73 792.379 1182.21C790.078 1181.95 788.221 1181.78 786.931 1181.67C786.285 1181.61 785.78 1181.58 785.432 1181.55C785.258 1181.54 785.122 1181.53 785.028 1181.52C784.981 1181.52 784.944 1181.52 784.918 1181.51C784.905 1181.51 784.895 1181.51 784.887 1181.51C784.883 1181.51 784.88 1181.51 784.877 1181.51C784.876 1181.51 784.874 1181.51 784.873 1181.51C784.871 1181.52 784.86 1181.68 784.5 1187.5L784.871 1181.51L771.938 1180.71L779.693 1191.09L813.336 1236.12L815.151 1236.71L866.574 1253.36L1028.7 1386.14L1034.11 1390.57L1037.66 1384.56L1073.16 1324.56L1075.23 1321.07L1072.76 1317.85L1019.41 1248.16L1084.82 1289.09L1088.24 1291.23L1091.51 1288.87L1178.01 1226.52L1299.24 1289.33L1308 1293.87V1285.13L1326.16 1262.78L1328.55 1259.83L1326.91 1256.41L1299.82 1199.83L1369.5 1250.55V1291L1380.98 1293.45L1387.92 1277.91L1429.94 1319.93L1400.49 1455.63L1373.51 1484.82L1322.96 1472.18L1322.24 1472H1310.29L1309.17 1472.47L1299.67 1476.47L1299.54 1476.53L1299.41 1476.59L1177.49 1534.85L1054.57 1476.58L1052.8 1475.74L1050.88 1476.11L739.621 1535.18L443.079 1357.85L441.657 1357H15V7.31445L565.896 117.198ZM1179.27 1301.05L1119.77 1406.55L1116.97 1411.53L1121.8 1414.58L1217.8 1475.08L1222.68 1478.15L1225.95 1473.39L1249.95 1438.39L1253.16 1433.71L1248.66 1430.25L1202.39 1394.62L1234.49 1321.92L1237.12 1315.97L1230.97 1313.83L1186.47 1298.33L1181.74 1296.68L1179.27 1301.05ZM1346.09 1319.22L1342.05 1350.22L1341.33 1355.72L1346.76 1356.87L1374.53 1362.74L1346.72 1416.23L1343.16 1423.06L1350.66 1424.84L1378.12 1431.34L1383.48 1432.61L1385.2 1427.38L1411.7 1346.88L1413.37 1341.8L1408.53 1339.56L1354.56 1314.56L1347.15 1311.12L1346.09 1319.22ZM1333.41 910.303C1337.86 959.649 1335.33 994.934 1323.34 1050.78L1262.66 1152.53L1203.65 1097.31L1247.54 1057.44L1247.61 1057.38L1247.68 1057.31C1271.93 1033.79 1289.52 1012.22 1304.05 985.044C1315.12 964.327 1324.33 940.496 1333.41 910.303ZM1135.87 332.381L1026.25 399.381L1021.89 402.044L1023.82 406.772L1082.95 551.272L1085.99 558.717L1092.26 553.675L1161.26 498.175L1163.85 496.093L1163.46 492.793L1144.96 336.793L1143.86 327.5L1135.87 332.381Z" fill="white" stroke="#490000" stroke-width="12"/>
<mask id="path-2-outside-1_2148_257" maskUnits="userSpaceOnUse" x="0.015625" y="1485.5" width="1440" height="495" fill="black">
<rect fill="white" x="0.015625" y="1485.5" width="1440" height="495"/>
<path d="M335.248 1680.81L334.75 1710.69H309.35V1758.26C309.35 1758.75 302.294 1771.45 288.183 1796.36C274.237 1821.09 258.051 1849.65 239.623 1882.02C221.195 1914.23 207.997 1937.39 200.028 1951.5C194.55 1951.5 186.332 1948.51 175.375 1942.53C164.584 1936.39 153.461 1927.76 142.006 1916.63C130.551 1905.35 121.088 1892.48 113.617 1878.04C106.312 1863.43 102.66 1847.82 102.66 1831.22C102.66 1820.43 104.071 1811.88 106.894 1805.57C109.716 1799.26 113.451 1793.04 118.1 1786.89C122.748 1780.58 125.072 1775.77 125.072 1772.45C125.072 1766.64 120.175 1763.73 110.38 1763.73C104.237 1763.73 98.9248 1765.31 94.4424 1768.47C90.126 1771.62 82.9873 1778.92 73.0264 1790.38L40.9023 1761.24C47.0449 1756.1 52.6895 1752.2 57.8359 1749.54C63.1484 1746.88 68.1289 1745.14 72.7773 1744.31C77.5918 1743.31 84.3154 1742.65 92.9482 1742.32C119.677 1742.32 137.606 1749.12 146.737 1762.74C155.868 1776.19 160.434 1793.37 160.434 1814.29C160.434 1815.95 159.687 1823.58 158.192 1837.2C156.864 1850.64 156.2 1862.43 156.2 1872.56C156.2 1898.79 160.766 1913.07 169.896 1915.39C174.877 1915.39 181.02 1909.08 188.324 1896.46L264.276 1759.25V1710.69H12.0156V1680.81H335.248Z"/>
<path d="M575.556 1710.69H409.706V1750.54C410.536 1750.54 411.2 1750.87 411.698 1751.53C412.196 1752.2 412.777 1752.53 413.441 1752.53C413.109 1752.53 416.513 1751.53 423.651 1749.54C430.956 1747.55 439.257 1745.8 448.554 1744.31C457.851 1742.65 466.815 1741.82 475.448 1741.82C495.37 1741.82 511.059 1744.56 522.514 1750.04C533.969 1755.52 542.187 1763.24 547.167 1773.2C552.313 1783.16 555.385 1794.36 556.381 1806.82C557.543 1819.1 558.124 1836.03 558.124 1857.62V1955.98C548.993 1952.33 540.775 1948.76 533.471 1945.27C526.166 1941.62 521.103 1938.96 518.28 1937.3C518.28 1931.83 517.284 1928.42 515.292 1927.09C509.813 1930.25 503.671 1933.73 496.864 1937.55C490.058 1941.21 481.176 1944.44 470.219 1947.26C459.262 1950.09 446.229 1951.5 431.122 1951.5C416.679 1951.5 402.567 1948.84 388.788 1943.53C375.009 1938.22 363.803 1930.66 355.17 1920.87C346.703 1910.91 342.47 1899.7 342.47 1887.25C342.47 1875.63 347.865 1863.51 358.656 1850.89C369.447 1838.11 383.891 1827.57 401.986 1819.27C420.082 1810.8 439.838 1806.57 461.254 1806.57C472.875 1806.57 483.915 1808.31 494.374 1811.8C504.833 1815.12 512.802 1818.85 518.28 1823V1800.09C511.806 1791.46 505.331 1785.48 498.856 1782.16C492.382 1778.84 482.421 1777.18 468.974 1777.18C451.542 1777.85 437.763 1779.34 427.636 1781.66C417.675 1783.82 406.884 1787.31 395.263 1792.12C383.808 1796.77 374.179 1800.42 366.376 1803.08V1784.65C367.538 1783.66 369.198 1782.25 371.356 1780.42C373.515 1778.59 374.926 1777.26 375.59 1776.43C376.42 1775.6 376.918 1775.11 377.084 1774.94V1710.69H326.034V1680.81H575.556V1710.69ZM518.28 1868.32C518.28 1860.69 509.73 1854.3 492.631 1849.15C475.531 1844 463.412 1841.43 456.273 1841.43C438.178 1841.43 421.659 1845.25 406.718 1852.88C391.942 1860.52 380.321 1869.4 371.854 1879.53C363.388 1889.49 359.154 1897.71 359.154 1904.18C361.479 1911.16 366.625 1915.97 374.594 1918.63C382.729 1921.12 391.361 1922.36 400.492 1922.36C417.426 1922.36 433.114 1920.12 447.558 1915.64C462.167 1911.16 474.784 1905.68 485.409 1899.2C496.034 1892.56 504.169 1886.25 509.813 1880.28C515.458 1874.3 518.28 1870.32 518.28 1868.32Z"/>
<path d="M822.089 1710.69H570.326V1680.81H822.089V1710.69ZM801.42 1800.09C801.42 1810.88 795.277 1822.01 782.992 1833.46C770.873 1844.92 760.663 1852.64 752.362 1856.62L715.009 1814.29C728.954 1812.96 740.658 1807.98 750.121 1799.34C759.75 1790.55 764.564 1781.91 764.564 1773.45C764.564 1769.96 761.825 1765.81 756.347 1761C750.868 1756.01 743.729 1753.52 734.931 1753.52C724.14 1753.52 711.938 1758.5 698.324 1768.47C684.711 1778.43 673.09 1791.29 663.461 1807.06C653.998 1822.84 649.267 1838.69 649.267 1854.63V1960.21L601.454 1935.31V1751.03H649.765V1769.96C651.093 1768.63 655.99 1765.56 664.457 1760.75C672.924 1755.93 682.719 1751.62 693.842 1747.8C705.131 1743.81 716.503 1741.82 727.958 1741.82C737.587 1741.82 748.129 1744.23 759.584 1749.04C771.205 1753.69 781.083 1760.5 789.218 1769.46C797.353 1778.43 801.42 1788.64 801.42 1800.09Z"/>
<path d="M1060.16 1710.69H894.306V1750.54C895.136 1750.54 895.8 1750.87 896.298 1751.53C896.796 1752.2 897.377 1752.53 898.041 1752.53C897.709 1752.53 901.112 1751.53 908.251 1749.54C915.556 1747.55 923.856 1745.8 933.153 1744.31C942.45 1742.65 951.415 1741.82 960.048 1741.82C979.97 1741.82 995.658 1744.56 1007.11 1750.04C1018.57 1755.52 1026.79 1763.24 1031.77 1773.2C1036.91 1783.16 1039.98 1794.36 1040.98 1806.82C1042.14 1819.1 1042.72 1836.03 1042.72 1857.62V1955.98C1033.59 1952.33 1025.38 1948.76 1018.07 1945.27C1010.77 1941.62 1005.7 1938.96 1002.88 1937.3C1002.88 1931.83 1001.88 1928.42 999.892 1927.09C994.413 1930.25 988.271 1933.73 981.464 1937.55C974.657 1941.21 965.775 1944.44 954.818 1947.26C943.861 1950.09 930.829 1951.5 915.722 1951.5C901.278 1951.5 887.167 1948.84 873.388 1943.53C859.608 1938.22 848.402 1930.66 839.77 1920.87C831.303 1910.91 827.069 1899.7 827.069 1887.25C827.069 1875.63 832.465 1863.51 843.256 1850.89C854.047 1838.11 868.49 1827.57 886.586 1819.27C904.682 1810.8 924.438 1806.57 945.854 1806.57C957.475 1806.57 968.515 1808.31 978.974 1811.8C989.433 1815.12 997.401 1818.85 1002.88 1823V1800.09C996.405 1791.46 989.931 1785.48 983.456 1782.16C976.981 1778.84 967.021 1777.18 953.573 1777.18C936.142 1777.85 922.362 1779.34 912.235 1781.66C902.274 1783.82 891.483 1787.31 879.862 1792.12C868.407 1796.77 858.778 1800.42 850.976 1803.08V1784.65C852.138 1783.66 853.798 1782.25 855.956 1780.42C858.114 1778.59 859.525 1777.26 860.189 1776.43C861.02 1775.6 861.518 1775.11 861.684 1774.94V1710.69H810.634V1680.81H1060.16V1710.69ZM1002.88 1868.32C1002.88 1860.69 994.33 1854.3 977.23 1849.15C960.131 1844 948.012 1841.43 940.873 1841.43C922.777 1841.43 906.259 1845.25 891.317 1852.88C876.542 1860.52 864.921 1869.4 856.454 1879.53C847.987 1889.49 843.754 1897.71 843.754 1904.18C846.078 1911.16 851.225 1915.97 859.193 1918.63C867.328 1921.12 875.961 1922.36 885.092 1922.36C902.025 1922.36 917.714 1920.12 932.157 1915.64C946.767 1911.16 959.384 1905.68 970.009 1899.2C980.634 1892.56 988.769 1886.25 994.413 1880.28C1000.06 1874.3 1002.88 1870.32 1002.88 1868.32Z"/>
<path d="M1330.84 1710.69H1129.88V1785.65C1133.53 1781.66 1137.68 1777.26 1142.33 1772.45C1146.98 1767.64 1152.29 1763.07 1158.27 1758.75C1164.25 1754.44 1171.55 1750.7 1180.18 1747.55C1188.82 1744.39 1198.53 1742.82 1209.32 1742.82C1229.74 1742.82 1247.75 1748.46 1263.36 1759.75C1279.13 1770.87 1291.42 1785.15 1300.21 1802.58C1309.01 1820.01 1313.41 1837.2 1313.41 1854.13C1313.41 1871.73 1309.18 1888 1300.71 1902.94C1292.25 1917.88 1283.78 1929.5 1275.31 1937.8C1266.84 1946.1 1260.54 1951.83 1256.39 1954.98L1215.55 1930.58C1217.87 1927.26 1222.85 1921.7 1230.49 1913.9C1238.12 1906.09 1244.85 1898.37 1250.66 1890.74C1256.47 1883.1 1261.62 1873.55 1266.1 1862.1C1270.58 1850.64 1272.9 1837.78 1273.07 1823.5C1273.07 1806.07 1268.92 1791.96 1260.62 1781.17C1252.32 1770.21 1240.86 1764.73 1226.25 1764.73C1212.64 1765.23 1198.11 1770.13 1182.67 1779.42C1167.4 1788.72 1154.54 1800.34 1144.08 1814.29C1133.62 1828.23 1128.39 1841.68 1128.39 1854.63V1953.49L1081.82 1928.59V1710.69H1054.43V1680.81H1081.82C1081.82 1653.92 1078 1629.84 1070.37 1608.59C1062.73 1587.18 1053.85 1569.58 1043.72 1555.8C1033.59 1542.02 1028.4 1536.58 1017.57 1525.17C1010.02 1517.21 1006.32 1512.16 1003 1510L1054 1499.5C1054 1499.5 1075.93 1530.32 1088.05 1548.08C1100.33 1565.68 1110.38 1586.51 1118.18 1610.58C1125.98 1634.49 1129.88 1657.9 1129.88 1680.81H1330.84V1710.69Z"/>
<path d="M1412.52 1654.66C1411.86 1655.33 1409.95 1655.66 1406.8 1655.66C1404.14 1655.66 1401.82 1655.33 1399.82 1654.66C1387.87 1631.25 1380.23 1616.98 1376.91 1611.83C1373.26 1606.85 1368.61 1603.61 1362.97 1602.12C1357.49 1600.62 1352.26 1599.21 1347.28 1597.88C1342.46 1596.39 1338.56 1593.07 1335.58 1587.92C1334.91 1586.93 1333.67 1583.11 1331.84 1576.47C1330.01 1569.66 1326.44 1561.78 1321.13 1552.81V1547.08H1330.84C1350.27 1553.06 1364.05 1558.54 1372.18 1563.52C1380.32 1568.33 1385.46 1573.07 1387.62 1577.71C1389.95 1582.2 1393.18 1591.58 1397.33 1605.85C1401.48 1619.96 1406.38 1632.67 1412.03 1643.95C1412.19 1645.45 1412.27 1646.86 1412.27 1648.19C1412.44 1649.35 1412.52 1651.51 1412.52 1654.66ZM1427.22 1710.69H1325.86V1680.81H1427.22V1710.69ZM1398.83 1956.73L1356.99 1933.57V1741.32H1398.83V1956.73Z"/>
</mask>
<path d="M335.248 1680.81L334.75 1710.69H309.35V1758.26C309.35 1758.75 302.294 1771.45 288.183 1796.36C274.237 1821.09 258.051 1849.65 239.623 1882.02C221.195 1914.23 207.997 1937.39 200.028 1951.5C194.55 1951.5 186.332 1948.51 175.375 1942.53C164.584 1936.39 153.461 1927.76 142.006 1916.63C130.551 1905.35 121.088 1892.48 113.617 1878.04C106.312 1863.43 102.66 1847.82 102.66 1831.22C102.66 1820.43 104.071 1811.88 106.894 1805.57C109.716 1799.26 113.451 1793.04 118.1 1786.89C122.748 1780.58 125.072 1775.77 125.072 1772.45C125.072 1766.64 120.175 1763.73 110.38 1763.73C104.237 1763.73 98.9248 1765.31 94.4424 1768.47C90.126 1771.62 82.9873 1778.92 73.0264 1790.38L40.9023 1761.24C47.0449 1756.1 52.6895 1752.2 57.8359 1749.54C63.1484 1746.88 68.1289 1745.14 72.7773 1744.31C77.5918 1743.31 84.3154 1742.65 92.9482 1742.32C119.677 1742.32 137.606 1749.12 146.737 1762.74C155.868 1776.19 160.434 1793.37 160.434 1814.29C160.434 1815.95 159.687 1823.58 158.192 1837.2C156.864 1850.64 156.2 1862.43 156.2 1872.56C156.2 1898.79 160.766 1913.07 169.896 1915.39C174.877 1915.39 181.02 1909.08 188.324 1896.46L264.276 1759.25V1710.69H12.0156V1680.81H335.248Z" fill="white"/>
<path d="M575.556 1710.69H409.706V1750.54C410.536 1750.54 411.2 1750.87 411.698 1751.53C412.196 1752.2 412.777 1752.53 413.441 1752.53C413.109 1752.53 416.513 1751.53 423.651 1749.54C430.956 1747.55 439.257 1745.8 448.554 1744.31C457.851 1742.65 466.815 1741.82 475.448 1741.82C495.37 1741.82 511.059 1744.56 522.514 1750.04C533.969 1755.52 542.187 1763.24 547.167 1773.2C552.313 1783.16 555.385 1794.36 556.381 1806.82C557.543 1819.1 558.124 1836.03 558.124 1857.62V1955.98C548.993 1952.33 540.775 1948.76 533.471 1945.27C526.166 1941.62 521.103 1938.96 518.28 1937.3C518.28 1931.83 517.284 1928.42 515.292 1927.09C509.813 1930.25 503.671 1933.73 496.864 1937.55C490.058 1941.21 481.176 1944.44 470.219 1947.26C459.262 1950.09 446.229 1951.5 431.122 1951.5C416.679 1951.5 402.567 1948.84 388.788 1943.53C375.009 1938.22 363.803 1930.66 355.17 1920.87C346.703 1910.91 342.47 1899.7 342.47 1887.25C342.47 1875.63 347.865 1863.51 358.656 1850.89C369.447 1838.11 383.891 1827.57 401.986 1819.27C420.082 1810.8 439.838 1806.57 461.254 1806.57C472.875 1806.57 483.915 1808.31 494.374 1811.8C504.833 1815.12 512.802 1818.85 518.28 1823V1800.09C511.806 1791.46 505.331 1785.48 498.856 1782.16C492.382 1778.84 482.421 1777.18 468.974 1777.18C451.542 1777.85 437.763 1779.34 427.636 1781.66C417.675 1783.82 406.884 1787.31 395.263 1792.12C383.808 1796.77 374.179 1800.42 366.376 1803.08V1784.65C367.538 1783.66 369.198 1782.25 371.356 1780.42C373.515 1778.59 374.926 1777.26 375.59 1776.43C376.42 1775.6 376.918 1775.11 377.084 1774.94V1710.69H326.034V1680.81H575.556V1710.69ZM518.28 1868.32C518.28 1860.69 509.73 1854.3 492.631 1849.15C475.531 1844 463.412 1841.43 456.273 1841.43C438.178 1841.43 421.659 1845.25 406.718 1852.88C391.942 1860.52 380.321 1869.4 371.854 1879.53C363.388 1889.49 359.154 1897.71 359.154 1904.18C361.479 1911.16 366.625 1915.97 374.594 1918.63C382.729 1921.12 391.361 1922.36 400.492 1922.36C417.426 1922.36 433.114 1920.12 447.558 1915.64C462.167 1911.16 474.784 1905.68 485.409 1899.2C496.034 1892.56 504.169 1886.25 509.813 1880.28C515.458 1874.3 518.28 1870.32 518.28 1868.32Z" fill="white"/>
<path d="M822.089 1710.69H570.326V1680.81H822.089V1710.69ZM801.42 1800.09C801.42 1810.88 795.277 1822.01 782.992 1833.46C770.873 1844.92 760.663 1852.64 752.362 1856.62L715.009 1814.29C728.954 1812.96 740.658 1807.98 750.121 1799.34C759.75 1790.55 764.564 1781.91 764.564 1773.45C764.564 1769.96 761.825 1765.81 756.347 1761C750.868 1756.01 743.729 1753.52 734.931 1753.52C724.14 1753.52 711.938 1758.5 698.324 1768.47C684.711 1778.43 673.09 1791.29 663.461 1807.06C653.998 1822.84 649.267 1838.69 649.267 1854.63V1960.21L601.454 1935.31V1751.03H649.765V1769.96C651.093 1768.63 655.99 1765.56 664.457 1760.75C672.924 1755.93 682.719 1751.62 693.842 1747.8C705.131 1743.81 716.503 1741.82 727.958 1741.82C737.587 1741.82 748.129 1744.23 759.584 1749.04C771.205 1753.69 781.083 1760.5 789.218 1769.46C797.353 1778.43 801.42 1788.64 801.42 1800.09Z" fill="white"/>
<path d="M1060.16 1710.69H894.306V1750.54C895.136 1750.54 895.8 1750.87 896.298 1751.53C896.796 1752.2 897.377 1752.53 898.041 1752.53C897.709 1752.53 901.112 1751.53 908.251 1749.54C915.556 1747.55 923.856 1745.8 933.153 1744.31C942.45 1742.65 951.415 1741.82 960.048 1741.82C979.97 1741.82 995.658 1744.56 1007.11 1750.04C1018.57 1755.52 1026.79 1763.24 1031.77 1773.2C1036.91 1783.16 1039.98 1794.36 1040.98 1806.82C1042.14 1819.1 1042.72 1836.03 1042.72 1857.62V1955.98C1033.59 1952.33 1025.38 1948.76 1018.07 1945.27C1010.77 1941.62 1005.7 1938.96 1002.88 1937.3C1002.88 1931.83 1001.88 1928.42 999.892 1927.09C994.413 1930.25 988.271 1933.73 981.464 1937.55C974.657 1941.21 965.775 1944.44 954.818 1947.26C943.861 1950.09 930.829 1951.5 915.722 1951.5C901.278 1951.5 887.167 1948.84 873.388 1943.53C859.608 1938.22 848.402 1930.66 839.77 1920.87C831.303 1910.91 827.069 1899.7 827.069 1887.25C827.069 1875.63 832.465 1863.51 843.256 1850.89C854.047 1838.11 868.49 1827.57 886.586 1819.27C904.682 1810.8 924.438 1806.57 945.854 1806.57C957.475 1806.57 968.515 1808.31 978.974 1811.8C989.433 1815.12 997.401 1818.85 1002.88 1823V1800.09C996.405 1791.46 989.931 1785.48 983.456 1782.16C976.981 1778.84 967.021 1777.18 953.573 1777.18C936.142 1777.85 922.362 1779.34 912.235 1781.66C902.274 1783.82 891.483 1787.31 879.862 1792.12C868.407 1796.77 858.778 1800.42 850.976 1803.08V1784.65C852.138 1783.66 853.798 1782.25 855.956 1780.42C858.114 1778.59 859.525 1777.26 860.189 1776.43C861.02 1775.6 861.518 1775.11 861.684 1774.94V1710.69H810.634V1680.81H1060.16V1710.69ZM1002.88 1868.32C1002.88 1860.69 994.33 1854.3 977.23 1849.15C960.131 1844 948.012 1841.43 940.873 1841.43C922.777 1841.43 906.259 1845.25 891.317 1852.88C876.542 1860.52 864.921 1869.4 856.454 1879.53C847.987 1889.49 843.754 1897.71 843.754 1904.18C846.078 1911.16 851.225 1915.97 859.193 1918.63C867.328 1921.12 875.961 1922.36 885.092 1922.36C902.025 1922.36 917.714 1920.12 932.157 1915.64C946.767 1911.16 959.384 1905.68 970.009 1899.2C980.634 1892.56 988.769 1886.25 994.413 1880.28C1000.06 1874.3 1002.88 1870.32 1002.88 1868.32Z" fill="white"/>
<path d="M1330.84 1710.69H1129.88V1785.65C1133.53 1781.66 1137.68 1777.26 1142.33 1772.45C1146.98 1767.64 1152.29 1763.07 1158.27 1758.75C1164.25 1754.44 1171.55 1750.7 1180.18 1747.55C1188.82 1744.39 1198.53 1742.82 1209.32 1742.82C1229.74 1742.82 1247.75 1748.46 1263.36 1759.75C1279.13 1770.87 1291.42 1785.15 1300.21 1802.58C1309.01 1820.01 1313.41 1837.2 1313.41 1854.13C1313.41 1871.73 1309.18 1888 1300.71 1902.94C1292.25 1917.88 1283.78 1929.5 1275.31 1937.8C1266.84 1946.1 1260.54 1951.83 1256.39 1954.98L1215.55 1930.58C1217.87 1927.26 1222.85 1921.7 1230.49 1913.9C1238.12 1906.09 1244.85 1898.37 1250.66 1890.74C1256.47 1883.1 1261.62 1873.55 1266.1 1862.1C1270.58 1850.64 1272.9 1837.78 1273.07 1823.5C1273.07 1806.07 1268.92 1791.96 1260.62 1781.17C1252.32 1770.21 1240.86 1764.73 1226.25 1764.73C1212.64 1765.23 1198.11 1770.13 1182.67 1779.42C1167.4 1788.72 1154.54 1800.34 1144.08 1814.29C1133.62 1828.23 1128.39 1841.68 1128.39 1854.63V1953.49L1081.82 1928.59V1710.69H1054.43V1680.81H1081.82C1081.82 1653.92 1078 1629.84 1070.37 1608.59C1062.73 1587.18 1053.85 1569.58 1043.72 1555.8C1033.59 1542.02 1028.4 1536.58 1017.57 1525.17C1010.02 1517.21 1006.32 1512.16 1003 1510L1054 1499.5C1054 1499.5 1075.93 1530.32 1088.05 1548.08C1100.33 1565.68 1110.38 1586.51 1118.18 1610.58C1125.98 1634.49 1129.88 1657.9 1129.88 1680.81H1330.84V1710.69Z" fill="white"/>
<path d="M1412.52 1654.66C1411.86 1655.33 1409.95 1655.66 1406.8 1655.66C1404.14 1655.66 1401.82 1655.33 1399.82 1654.66C1387.87 1631.25 1380.23 1616.98 1376.91 1611.83C1373.26 1606.85 1368.61 1603.61 1362.97 1602.12C1357.49 1600.62 1352.26 1599.21 1347.28 1597.88C1342.46 1596.39 1338.56 1593.07 1335.58 1587.92C1334.91 1586.93 1333.67 1583.11 1331.84 1576.47C1330.01 1569.66 1326.44 1561.78 1321.13 1552.81V1547.08H1330.84C1350.27 1553.06 1364.05 1558.54 1372.18 1563.52C1380.32 1568.33 1385.46 1573.07 1387.62 1577.71C1389.95 1582.2 1393.18 1591.58 1397.33 1605.85C1401.48 1619.96 1406.38 1632.67 1412.03 1643.95C1412.19 1645.45 1412.27 1646.86 1412.27 1648.19C1412.44 1649.35 1412.52 1651.51 1412.52 1654.66ZM1427.22 1710.69H1325.86V1680.81H1427.22V1710.69ZM1398.83 1956.73L1356.99 1933.57V1741.32H1398.83V1956.73Z" fill="white"/>
<path d="M335.248 1680.81L334.75 1710.69H309.35V1758.26C309.35 1758.75 302.294 1771.45 288.183 1796.36C274.237 1821.09 258.051 1849.65 239.623 1882.02C221.195 1914.23 207.997 1937.39 200.028 1951.5C194.55 1951.5 186.332 1948.51 175.375 1942.53C164.584 1936.39 153.461 1927.76 142.006 1916.63C130.551 1905.35 121.088 1892.48 113.617 1878.04C106.312 1863.43 102.66 1847.82 102.66 1831.22C102.66 1820.43 104.071 1811.88 106.894 1805.57C109.716 1799.26 113.451 1793.04 118.1 1786.89C122.748 1780.58 125.072 1775.77 125.072 1772.45C125.072 1766.64 120.175 1763.73 110.38 1763.73C104.237 1763.73 98.9248 1765.31 94.4424 1768.47C90.126 1771.62 82.9873 1778.92 73.0264 1790.38L40.9023 1761.24C47.0449 1756.1 52.6895 1752.2 57.8359 1749.54C63.1484 1746.88 68.1289 1745.14 72.7773 1744.31C77.5918 1743.31 84.3154 1742.65 92.9482 1742.32C119.677 1742.32 137.606 1749.12 146.737 1762.74C155.868 1776.19 160.434 1793.37 160.434 1814.29C160.434 1815.95 159.687 1823.58 158.192 1837.2C156.864 1850.64 156.2 1862.43 156.2 1872.56C156.2 1898.79 160.766 1913.07 169.896 1915.39C174.877 1915.39 181.02 1909.08 188.324 1896.46L264.276 1759.25V1710.69H12.0156V1680.81H335.248Z" stroke="#490000" stroke-width="24" mask="url(#path-2-outside-1_2148_257)"/>
<path d="M575.556 1710.69H409.706V1750.54C410.536 1750.54 411.2 1750.87 411.698 1751.53C412.196 1752.2 412.777 1752.53 413.441 1752.53C413.109 1752.53 416.513 1751.53 423.651 1749.54C430.956 1747.55 439.257 1745.8 448.554 1744.31C457.851 1742.65 466.815 1741.82 475.448 1741.82C495.37 1741.82 511.059 1744.56 522.514 1750.04C533.969 1755.52 542.187 1763.24 547.167 1773.2C552.313 1783.16 555.385 1794.36 556.381 1806.82C557.543 1819.1 558.124 1836.03 558.124 1857.62V1955.98C548.993 1952.33 540.775 1948.76 533.471 1945.27C526.166 1941.62 521.103 1938.96 518.28 1937.3C518.28 1931.83 517.284 1928.42 515.292 1927.09C509.813 1930.25 503.671 1933.73 496.864 1937.55C490.058 1941.21 481.176 1944.44 470.219 1947.26C459.262 1950.09 446.229 1951.5 431.122 1951.5C416.679 1951.5 402.567 1948.84 388.788 1943.53C375.009 1938.22 363.803 1930.66 355.17 1920.87C346.703 1910.91 342.47 1899.7 342.47 1887.25C342.47 1875.63 347.865 1863.51 358.656 1850.89C369.447 1838.11 383.891 1827.57 401.986 1819.27C420.082 1810.8 439.838 1806.57 461.254 1806.57C472.875 1806.57 483.915 1808.31 494.374 1811.8C504.833 1815.12 512.802 1818.85 518.28 1823V1800.09C511.806 1791.46 505.331 1785.48 498.856 1782.16C492.382 1778.84 482.421 1777.18 468.974 1777.18C451.542 1777.85 437.763 1779.34 427.636 1781.66C417.675 1783.82 406.884 1787.31 395.263 1792.12C383.808 1796.77 374.179 1800.42 366.376 1803.08V1784.65C367.538 1783.66 369.198 1782.25 371.356 1780.42C373.515 1778.59 374.926 1777.26 375.59 1776.43C376.42 1775.6 376.918 1775.11 377.084 1774.94V1710.69H326.034V1680.81H575.556V1710.69ZM518.28 1868.32C518.28 1860.69 509.73 1854.3 492.631 1849.15C475.531 1844 463.412 1841.43 456.273 1841.43C438.178 1841.43 421.659 1845.25 406.718 1852.88C391.942 1860.52 380.321 1869.4 371.854 1879.53C363.388 1889.49 359.154 1897.71 359.154 1904.18C361.479 1911.16 366.625 1915.97 374.594 1918.63C382.729 1921.12 391.361 1922.36 400.492 1922.36C417.426 1922.36 433.114 1920.12 447.558 1915.64C462.167 1911.16 474.784 1905.68 485.409 1899.2C496.034 1892.56 504.169 1886.25 509.813 1880.28C515.458 1874.3 518.28 1870.32 518.28 1868.32Z" stroke="#490000" stroke-width="24" mask="url(#path-2-outside-1_2148_257)"/>
<path d="M822.089 1710.69H570.326V1680.81H822.089V1710.69ZM801.42 1800.09C801.42 1810.88 795.277 1822.01 782.992 1833.46C770.873 1844.92 760.663 1852.64 752.362 1856.62L715.009 1814.29C728.954 1812.96 740.658 1807.98 750.121 1799.34C759.75 1790.55 764.564 1781.91 764.564 1773.45C764.564 1769.96 761.825 1765.81 756.347 1761C750.868 1756.01 743.729 1753.52 734.931 1753.52C724.14 1753.52 711.938 1758.5 698.324 1768.47C684.711 1778.43 673.09 1791.29 663.461 1807.06C653.998 1822.84 649.267 1838.69 649.267 1854.63V1960.21L601.454 1935.31V1751.03H649.765V1769.96C651.093 1768.63 655.99 1765.56 664.457 1760.75C672.924 1755.93 682.719 1751.62 693.842 1747.8C705.131 1743.81 716.503 1741.82 727.958 1741.82C737.587 1741.82 748.129 1744.23 759.584 1749.04C771.205 1753.69 781.083 1760.5 789.218 1769.46C797.353 1778.43 801.42 1788.64 801.42 1800.09Z" stroke="#490000" stroke-width="24" mask="url(#path-2-outside-1_2148_257)"/>
<path d="M1060.16 1710.69H894.306V1750.54C895.136 1750.54 895.8 1750.87 896.298 1751.53C896.796 1752.2 897.377 1752.53 898.041 1752.53C897.709 1752.53 901.112 1751.53 908.251 1749.54C915.556 1747.55 923.856 1745.8 933.153 1744.31C942.45 1742.65 951.415 1741.82 960.048 1741.82C979.97 1741.82 995.658 1744.56 1007.11 1750.04C1018.57 1755.52 1026.79 1763.24 1031.77 1773.2C1036.91 1783.16 1039.98 1794.36 1040.98 1806.82C1042.14 1819.1 1042.72 1836.03 1042.72 1857.62V1955.98C1033.59 1952.33 1025.38 1948.76 1018.07 1945.27C1010.77 1941.62 1005.7 1938.96 1002.88 1937.3C1002.88 1931.83 1001.88 1928.42 999.892 1927.09C994.413 1930.25 988.271 1933.73 981.464 1937.55C974.657 1941.21 965.775 1944.44 954.818 1947.26C943.861 1950.09 930.829 1951.5 915.722 1951.5C901.278 1951.5 887.167 1948.84 873.388 1943.53C859.608 1938.22 848.402 1930.66 839.77 1920.87C831.303 1910.91 827.069 1899.7 827.069 1887.25C827.069 1875.63 832.465 1863.51 843.256 1850.89C854.047 1838.11 868.49 1827.57 886.586 1819.27C904.682 1810.8 924.438 1806.57 945.854 1806.57C957.475 1806.57 968.515 1808.31 978.974 1811.8C989.433 1815.12 997.401 1818.85 1002.88 1823V1800.09C996.405 1791.46 989.931 1785.48 983.456 1782.16C976.981 1778.84 967.021 1777.18 953.573 1777.18C936.142 1777.85 922.362 1779.34 912.235 1781.66C902.274 1783.82 891.483 1787.31 879.862 1792.12C868.407 1796.77 858.778 1800.42 850.976 1803.08V1784.65C852.138 1783.66 853.798 1782.25 855.956 1780.42C858.114 1778.59 859.525 1777.26 860.189 1776.43C861.02 1775.6 861.518 1775.11 861.684 1774.94V1710.69H810.634V1680.81H1060.16V1710.69ZM1002.88 1868.32C1002.88 1860.69 994.33 1854.3 977.23 1849.15C960.131 1844 948.012 1841.43 940.873 1841.43C922.777 1841.43 906.259 1845.25 891.317 1852.88C876.542 1860.52 864.921 1869.4 856.454 1879.53C847.987 1889.49 843.754 1897.71 843.754 1904.18C846.078 1911.16 851.225 1915.97 859.193 1918.63C867.328 1921.12 875.961 1922.36 885.092 1922.36C902.025 1922.36 917.714 1920.12 932.157 1915.64C946.767 1911.16 959.384 1905.68 970.009 1899.2C980.634 1892.56 988.769 1886.25 994.413 1880.28C1000.06 1874.3 1002.88 1870.32 1002.88 1868.32Z" stroke="#490000" stroke-width="24" mask="url(#path-2-outside-1_2148_257)"/>
<path d="M1330.84 1710.69H1129.88V1785.65C1133.53 1781.66 1137.68 1777.26 1142.33 1772.45C1146.98 1767.64 1152.29 1763.07 1158.27 1758.75C1164.25 1754.44 1171.55 1750.7 1180.18 1747.55C1188.82 1744.39 1198.53 1742.82 1209.32 1742.82C1229.74 1742.82 1247.75 1748.46 1263.36 1759.75C1279.13 1770.87 1291.42 1785.15 1300.21 1802.58C1309.01 1820.01 1313.41 1837.2 1313.41 1854.13C1313.41 1871.73 1309.18 1888 1300.71 1902.94C1292.25 1917.88 1283.78 1929.5 1275.31 1937.8C1266.84 1946.1 1260.54 1951.83 1256.39 1954.98L1215.55 1930.58C1217.87 1927.26 1222.85 1921.7 1230.49 1913.9C1238.12 1906.09 1244.85 1898.37 1250.66 1890.74C1256.47 1883.1 1261.62 1873.55 1266.1 1862.1C1270.58 1850.64 1272.9 1837.78 1273.07 1823.5C1273.07 1806.07 1268.92 1791.96 1260.62 1781.17C1252.32 1770.21 1240.86 1764.73 1226.25 1764.73C1212.64 1765.23 1198.11 1770.13 1182.67 1779.42C1167.4 1788.72 1154.54 1800.34 1144.08 1814.29C1133.62 1828.23 1128.39 1841.68 1128.39 1854.63V1953.49L1081.82 1928.59V1710.69H1054.43V1680.81H1081.82C1081.82 1653.92 1078 1629.84 1070.37 1608.59C1062.73 1587.18 1053.85 1569.58 1043.72 1555.8C1033.59 1542.02 1028.4 1536.58 1017.57 1525.17C1010.02 1517.21 1006.32 1512.16 1003 1510L1054 1499.5C1054 1499.5 1075.93 1530.32 1088.05 1548.08C1100.33 1565.68 1110.38 1586.51 1118.18 1610.58C1125.98 1634.49 1129.88 1657.9 1129.88 1680.81H1330.84V1710.69Z" stroke="#490000" stroke-width="24" mask="url(#path-2-outside-1_2148_257)"/>
<path d="M1412.52 1654.66C1411.86 1655.33 1409.95 1655.66 1406.8 1655.66C1404.14 1655.66 1401.82 1655.33 1399.82 1654.66C1387.87 1631.25 1380.23 1616.98 1376.91 1611.83C1373.26 1606.85 1368.61 1603.61 1362.97 1602.12C1357.49 1600.62 1352.26 1599.21 1347.28 1597.88C1342.46 1596.39 1338.56 1593.07 1335.58 1587.92C1334.91 1586.93 1333.67 1583.11 1331.84 1576.47C1330.01 1569.66 1326.44 1561.78 1321.13 1552.81V1547.08H1330.84C1350.27 1553.06 1364.05 1558.54 1372.18 1563.52C1380.32 1568.33 1385.46 1573.07 1387.62 1577.71C1389.95 1582.2 1393.18 1591.58 1397.33 1605.85C1401.48 1619.96 1406.38 1632.67 1412.03 1643.95C1412.19 1645.45 1412.27 1646.86 1412.27 1648.19C1412.44 1649.35 1412.52 1651.51 1412.52 1654.66ZM1427.22 1710.69H1325.86V1680.81H1427.22V1710.69ZM1398.83 1956.73L1356.99 1933.57V1741.32H1398.83V1956.73Z" stroke="#490000" stroke-width="24" mask="url(#path-2-outside-1_2148_257)"/>
</svg>
